<svg id="Group_397" data-name="Group 397" xmlns="http://www.w3.org/2000/svg" viewBox="0 0 80 80">
  <defs>
    <style>
      .cls-1, .cls-2 {
        fill: #5cc5e6;
      }

      .cls-1 {
        opacity: 0.3;
      }
    </style>
  </defs>
  <path id="Path_238" data-name="Path 238" class="cls-1" d="M34.688,100.625H30V95.937h1.375l3.312,3.313ZM38,95.937l-3.312-3.312,8.469-8.469,2.719,2.719.609.609ZM56.125,90.5l-16-16a7.039,7.039,0,0,1,8,1.375L54.75,82.5A7.039,7.039,0,0,1,56.125,90.5Zm.5-12.766L52.891,74l3.922-4.641,4.875,4.109Zm44,18.2v4.688H95.937V99.25l3.313-3.312h1.375Zm-4.688-3.312-3.312,3.313-8.469-8.469.609-.609,2.719-2.719ZM82.5,75.875a7.039,7.039,0,0,1,8-1.375l-16,16a7.039,7.039,0,0,1,1.375-8ZM77.734,74,74,77.734,30,40.625V30H40.625Zm22.891-33.375L74.391,62.766l-6.016-7.141L90,30h10.625Z" transform="translate(-25.312 -25.312)"/>
  <path id="Path_239" data-name="Path 239" class="cls-2" d="M80,0H62.5L40,26.672,17.5,0H0V17.5L27.906,41.031l-3.844,4.563a11.7,11.7,0,0,0-14.5,1.656L7.891,48.906l6.641,6.625L4.125,65.938H0V80H14.063V75.875L24.469,65.469l6.625,6.625,1.656-1.656a11.746,11.746,0,0,0,1.641-14.5l5.594-4.719,5.594,4.719a11.75,11.75,0,0,0,1.641,14.5l1.656,1.656L55.5,65.469,65.906,75.875V80H79.969V65.938H75.844L65.438,55.531l6.625-6.625L70.406,47.25a11.715,11.715,0,0,0-14.5-1.656l-3.844-4.562L80,17.5ZM9.375,75.313H4.688V70.625H6.062l3.313,3.313Zm3.313-4.687L9.375,67.312l8.469-8.469,2.719,2.719.609.609Zm18.125-5.437-16-16a7.039,7.039,0,0,1,8,1.375l6.625,6.625A7.039,7.039,0,0,1,30.813,65.188Zm.5-12.766-3.734-3.734L31.5,44.047l4.875,4.109Zm44,18.2v4.688H70.625V73.938l3.313-3.313h1.375Zm-4.687-3.313-3.313,3.313-8.469-8.469.609-.609,2.719-2.719ZM57.188,50.563a7.039,7.039,0,0,1,8-1.375l-16,16a7.039,7.039,0,0,1,1.375-8Zm-4.766-1.875-3.734,3.734-44-37.109V4.688H15.313ZM75.313,15.313,49.078,37.453l-6.016-7.141L64.688,4.688H75.313ZM51.594,25.078,68.172,8.516l3.313,3.313L54.922,28.406ZM8.516,11.828l3.313-3.312L28.406,25.094l-3.313,3.313Z"/>
</svg>
