<svg xmlns="http://www.w3.org/2000/svg" viewBox="0 0 26 26">
  <defs>
    <style>
      .cls-1 {
        fill: #989898;
      }
    </style>
  </defs>
  <path id="facebook-box" class="cls-1" d="M5.889,3H26.111A2.889,2.889,0,0,1,29,5.889V26.111A2.889,2.889,0,0,1,26.111,29H5.889A2.889,2.889,0,0,1,3,26.111V5.889A2.889,2.889,0,0,1,5.889,3M24.667,5.889H21.056A5.056,5.056,0,0,0,16,10.944v3.611H13.111v4.333H16V29h4.333V18.889h4.333V14.556H20.333V11.667a1.444,1.444,0,0,1,1.444-1.444h2.889Z" transform="translate(-3 -3)"/>
</svg>
