<svg xmlns="http://www.w3.org/2000/svg" viewBox="0 0 26 21.128">
  <defs>
    <style>
      .cls-1 {
        fill: #989898;
      }
    </style>
  </defs>
  <path id="twitter" class="cls-1" d="M27.54,6.486a10.648,10.648,0,0,1-3.057.858,5.342,5.342,0,0,0,2.337-2.958,10.739,10.739,0,0,1-3.38,1.3A5.25,5.25,0,0,0,19.511,4,5.325,5.325,0,0,0,14.2,9.332a5.541,5.541,0,0,0,.137,1.218A15.155,15.155,0,0,1,3.355,4.982a5.311,5.311,0,0,0,1.653,7.1,5.273,5.273,0,0,1-2.424-.621v.037a5.336,5.336,0,0,0,4.275,5.232,5.228,5.228,0,0,1-2.4.087,5.319,5.319,0,0,0,4.971,3.7A10.591,10.591,0,0,1,2.808,22.8a10.84,10.84,0,0,1-1.268-.075,15.093,15.093,0,0,0,8.178,2.4A15.083,15.083,0,0,0,24.893,9.953c0-.236,0-.46-.012-.7A10.653,10.653,0,0,0,27.54,6.486Z" transform="translate(-1.54 -4)"/>
</svg>
